<svg xmlns="http://www.w3.org/2000/svg" viewBox="0 0 64 64">
  <defs>
    <linearGradient id="brandGrad" x1="0" y1="0" x2="1" y2="1">
      <stop offset="0" stop-color="#0f766e"/>
      <stop offset="0.55" stop-color="#14b8a6"/>
      <stop offset="1" stop-color="#f59e0b"/>
    </linearGradient>
  </defs>
  <rect width="64" height="64" rx="12" fill="url(#brandGrad)"/>

  <!-- Book mark on the left -->
  <g transform="translate(8,10)">
    <rect x="0" y="6" width="22" height="34" rx="3" fill="#ffffff"/>
    <path d="M4 12h14v2H4zM4 18h12v2H4z" fill="#0f172a" opacity="0.9"/>
  </g>

  <!-- Quote mark on the right to match navbar -->
  <g transform="translate(36,12)">
    <path d="M6.5 30c-1.8 0-3.5-1.2-3.5-3.5 0-3.6 2.8-6.1 5.5-7.2 0.6-0.2 1.2-0.4 1.2-1.1 0-0.9-0.8-1.3-1.8-1.3-2.2 0-3.9 1.6-4.6 3.5-0.1 0.3-0.5 0.5-0.8 0.4-0.3-0.1-0.5-0.5-0.4-0.8 0.9-3 3.6-5 6.2-5 2.8 0 4.6 1.5 4.6 4.1 0 2.6-2.6 3.6-4.5 4.2-1.5 0.5-2.5 1.5-2.5 3.1 0 1.2 0.9 2.3 2.5 2.3 1.8 0 3.3-1.1 3.7-2.8 0.1-0.4 0.5-0.6 0.9-0.5 0.4 0.1 0.6 0.5 0.5 0.9-0.6 2.7-3 4.5-6.2 4.5z" fill="#ffffff"/>
  </g>
</svg>
